<svg width="50" height="110" viewBox="0 0 50 110" fill="none" xmlns="http://www.w3.org/2000/svg">
<rect width="50" height="110" fill="white"/>
<g clip-path="url(#clip0_1_1835)">
<path d="M17.1094 58H15C15 56.6739 14.4732 55.4021 13.5355 54.4645C12.5979 53.5268 11.3261 53 10 53C8.67392 53 7.40215 53.5268 6.46447 54.4645C5.52678 55.4021 5 56.6739 5 58H2.89062C2.22758 58 1.5917 58.2634 1.12286 58.7322C0.654017 59.2011 0.390625 59.837 0.390625 60.5L0 68.8332C0.00134384 69.9379 0.440776 70.997 1.22191 71.7781C2.00305 72.5592 3.06211 72.9987 4.1668 73H15.8332C16.9379 72.9987 17.997 72.5592 18.7781 71.7781C19.5592 70.997 19.9987 69.9379 20 68.8332L19.6094 60.5C19.6094 59.837 19.346 59.2011 18.8771 58.7322C18.4083 58.2634 17.7724 58 17.1094 58ZM10 54.6668C10.4377 54.6667 10.8712 54.7529 11.2756 54.9204C11.68 55.0879 12.0475 55.3334 12.357 55.643C12.6666 55.9525 12.9121 56.32 13.0796 56.7244C13.2471 57.1288 13.3333 57.5623 13.3332 58H6.6668C6.66675 57.5623 6.75293 57.1288 6.92042 56.7244C7.08791 56.32 7.33343 55.9525 7.64296 55.643C7.95248 55.3334 8.31995 55.0879 8.72438 54.9204C9.1288 54.7529 9.56226 54.6667 10 54.6668ZM18.3332 68.8332C18.3332 69.4962 18.0698 70.1321 17.601 70.601C17.1321 71.0698 16.4962 71.3332 15.8332 71.3332H4.1668C3.50376 71.3332 2.86787 71.0698 2.39903 70.601C1.93019 70.1321 1.6668 69.4962 1.6668 68.8332L2.05742 60.5C2.05737 60.3906 2.07889 60.2822 2.12074 60.1811C2.1626 60.08 2.22397 59.9881 2.30135 59.9107C2.37873 59.8333 2.4706 59.772 2.57171 59.7301C2.67282 59.6883 2.78119 59.6667 2.89062 59.6668H5V61.3332C4.9976 61.4442 5.01738 61.5545 5.05818 61.6577C5.09898 61.7609 5.15999 61.8549 5.23761 61.9343C5.31524 62.0136 5.40792 62.0766 5.51023 62.1196C5.61254 62.1627 5.72241 62.1848 5.8334 62.1848C5.94439 62.1848 6.05426 62.1627 6.15656 62.1196C6.25887 62.0766 6.35156 62.0136 6.42918 61.9343C6.50681 61.8549 6.56781 61.7609 6.60862 61.6577C6.64942 61.5545 6.6692 61.4442 6.6668 61.3332V59.6668H13.3332V61.3332C13.3308 61.4442 13.3506 61.5545 13.3914 61.6577C13.4322 61.7609 13.4932 61.8549 13.5708 61.9343C13.6484 62.0136 13.7411 62.0766 13.8434 62.1196C13.9457 62.1627 14.0556 62.1848 14.1666 62.1848C14.2776 62.1848 14.3875 62.1627 14.4898 62.1196C14.5921 62.0766 14.6848 62.0136 14.7624 61.9343C14.84 61.8549 14.901 61.7609 14.9418 61.6577C14.9826 61.5545 15.0024 61.4442 15 61.3332V59.6668H17.1094C17.2188 59.6667 17.3272 59.6883 17.4283 59.7301C17.5294 59.772 17.6213 59.8333 17.6987 59.9107C17.776 59.9881 17.8374 60.08 17.8793 60.1811C17.9211 60.2822 17.9426 60.3906 17.9426 60.5L18.3332 68.8332Z" fill="#8BA5D8"/>
</g>
<g clip-path="url(#clip1_1_1835)">
<path d="M48.7781 49.3793C47.9969 48.5982 46.9379 48.1588 45.8332 48.1574H43.9563V39.0949C43.9555 38.2744 43.6293 37.4877 43.0491 36.9074C42.4689 36.3272 41.6823 36.0008 40.8617 36H39.1383C38.3179 36.0008 37.5313 36.3271 36.9512 36.9071C36.371 37.4872 36.0447 38.2737 36.0437 39.0941V48.1566H34.1687C33.0636 48.1575 32.0039 48.5968 31.2223 49.3781C30.4407 50.1595 30.0011 51.2191 30 52.3242V67.259C30.001 68.0649 30.2358 68.8533 30.6758 69.5284C31.1159 70.2036 31.7424 70.7366 32.4793 71.0629C32.3355 71.2492 32.2428 71.4698 32.2103 71.7029C32.1778 71.936 32.2066 72.1736 32.2939 72.3922C32.3812 72.6107 32.524 72.8028 32.7081 72.9493C32.8923 73.0959 33.1115 73.1919 33.344 73.2279C33.5766 73.264 33.8146 73.2387 34.0345 73.1547C34.2543 73.0707 34.4485 72.9308 34.5978 72.7489C34.7471 72.567 34.8464 72.3492 34.8859 72.1172C34.9254 71.8852 34.9037 71.6469 34.823 71.4258H45.1785C45.0977 71.647 45.0759 71.8854 45.1153 72.1176C45.1547 72.3497 45.254 72.5676 45.4034 72.7497C45.5527 72.9317 45.747 73.0717 45.9669 73.1558C46.1869 73.2399 46.425 73.2652 46.6577 73.2291C46.8904 73.1931 47.1097 73.097 47.294 72.9503C47.4782 72.8037 47.621 72.6115 47.7083 72.3928C47.7956 72.1741 47.8243 71.9364 47.7917 71.7032C47.7591 71.4699 47.6662 71.2493 47.5223 71.0629C48.2589 70.7364 48.8851 70.2033 49.3248 69.5281C49.7646 68.853 49.9991 68.0647 50 67.259V52.3242C49.9988 51.2195 49.5593 50.1604 48.7781 49.3793ZM39.1383 37.5625H40.8617C41.2678 37.5629 41.6572 37.7244 41.9444 38.0115C42.2316 38.2987 42.3932 38.688 42.3938 39.0941V48.1566H37.6062V39.0941C37.6068 38.688 37.7684 38.2987 38.0556 38.0115C38.3428 37.7244 38.7322 37.5629 39.1383 37.5625ZM48.3332 67.259C48.3332 67.922 48.0698 68.5579 47.601 69.0268C47.1321 69.4956 46.4962 69.759 45.8332 69.759H34.1668C33.5038 69.759 32.8679 69.4956 32.399 69.0268C31.9302 68.5579 31.6668 67.922 31.6668 67.259V52.3242C31.6668 51.6612 31.9302 51.0253 32.399 50.5565C32.8679 50.0876 33.5038 49.8242 34.1668 49.8242H45.8332C46.4962 49.8242 47.1321 50.0876 47.601 50.5565C48.0698 51.0253 48.3332 51.6612 48.3332 52.3242V67.259Z" fill="#8BA5D8"/>
<path d="M36.8251 51.9074C36.6041 51.9075 36.3923 51.9953 36.236 52.1516C36.0798 52.3078 35.992 52.5197 35.9919 52.7406V66.4582C35.9895 66.5692 36.0093 66.6795 36.0501 66.7827C36.0909 66.8859 36.1519 66.9799 36.2295 67.0593C36.3071 67.1386 36.3998 67.2016 36.5021 67.2446C36.6044 67.2877 36.7143 67.3098 36.8253 67.3098C36.9363 67.3098 37.0461 67.2877 37.1485 67.2446C37.2508 67.2016 37.3434 67.1386 37.4211 67.0593C37.4987 66.9799 37.5597 66.8859 37.6005 66.7827C37.6413 66.6795 37.6611 66.5692 37.6587 66.4582V52.7406C37.6586 52.5196 37.5707 52.3077 37.4144 52.1514C37.2581 51.9952 37.0461 51.9074 36.8251 51.9074Z" fill="#8BA5D8"/>
<path d="M43.1751 51.9074C42.9541 51.9074 42.7421 51.9952 42.5858 52.1514C42.4295 52.3077 42.3416 52.5196 42.3415 52.7406V66.4582C42.3391 66.5692 42.3589 66.6795 42.3997 66.7827C42.4405 66.8859 42.5015 66.9799 42.5791 67.0593C42.6567 67.1386 42.7494 67.2016 42.8517 67.2446C42.954 67.2877 43.0639 67.3098 43.1749 67.3098C43.2859 67.3098 43.3958 67.2877 43.4981 67.2446C43.6004 67.2016 43.6931 67.1386 43.7707 67.0593C43.8483 66.9799 43.9093 66.8859 43.9501 66.7827C43.9909 66.6795 44.0107 66.5692 44.0083 66.4582V52.7406C44.0082 52.5197 43.9204 52.3078 43.7641 52.1516C43.6079 51.9953 43.396 51.9075 43.1751 51.9074Z" fill="#8BA5D8"/>
</g>
<defs>
<clipPath id="clip0_1_1835">
<rect width="20" height="20" fill="white" transform="translate(0 53)"/>
</clipPath>
<clipPath id="clip1_1_1835">
<rect width="20" height="37.2453" fill="white" transform="translate(30 36)"/>
</clipPath>
</defs>
</svg>
