<svg width="297" height="56" viewBox="0 0 297 56" fill="none" xmlns="http://www.w3.org/2000/svg">
<path d="M95.999 46.3447H93.4766L93.4629 45.2852H95.7529C96.1312 45.2852 96.4616 45.2214 96.7441 45.0938C97.0267 44.9661 97.2454 44.7839 97.4004 44.5469C97.5599 44.3053 97.6396 44.0182 97.6396 43.6855C97.6396 43.321 97.569 43.0247 97.4277 42.7969C97.291 42.5645 97.0791 42.3958 96.792 42.291C96.5094 42.1816 96.1494 42.127 95.7119 42.127H93.7705V51H92.4512V41.0469H95.7119C96.2223 41.0469 96.6781 41.0993 97.0791 41.2041C97.4801 41.3044 97.8197 41.4639 98.0977 41.6826C98.3802 41.8968 98.5944 42.1702 98.7402 42.5029C98.8861 42.8356 98.959 43.2344 98.959 43.6992C98.959 44.1094 98.8542 44.4808 98.6445 44.8135C98.4349 45.1416 98.1432 45.4105 97.7695 45.6201C97.4004 45.8298 96.9674 45.9642 96.4707 46.0234L95.999 46.3447ZM95.9375 51H92.957L93.7021 49.9268H95.9375C96.3568 49.9268 96.7122 49.8538 97.0039 49.708C97.3001 49.5622 97.5257 49.3571 97.6807 49.0928C97.8356 48.8239 97.9131 48.5072 97.9131 48.1426C97.9131 47.7734 97.847 47.4544 97.7148 47.1855C97.5827 46.9167 97.3753 46.7093 97.0928 46.5635C96.8102 46.4176 96.4456 46.3447 95.999 46.3447H94.1191L94.1328 45.2852H96.7031L96.9834 45.668C97.4619 45.709 97.8675 45.8457 98.2002 46.0781C98.5329 46.306 98.7858 46.5977 98.959 46.9531C99.1367 47.3086 99.2256 47.7005 99.2256 48.1289C99.2256 48.7487 99.0889 49.2728 98.8154 49.7012C98.5465 50.125 98.166 50.4486 97.6738 50.6719C97.1816 50.8906 96.6029 51 95.9375 51ZM109.384 43.6035V44.6494H105.645V43.6035H109.384ZM105.829 43.6035V51H104.564V43.6035H105.829ZM110.505 43.6035V51H109.233V43.6035H110.505ZM114.613 50.2344L116.671 43.6035H118.024L115.058 52.1416C114.989 52.3239 114.898 52.5199 114.784 52.7295C114.675 52.9437 114.534 53.1465 114.36 53.3379C114.187 53.5293 113.978 53.6842 113.731 53.8027C113.49 53.9258 113.201 53.9873 112.863 53.9873C112.763 53.9873 112.635 53.9736 112.48 53.9463C112.326 53.9189 112.216 53.8962 112.152 53.8779L112.146 52.8525C112.182 52.8571 112.239 52.8617 112.316 52.8662C112.398 52.8753 112.455 52.8799 112.487 52.8799C112.774 52.8799 113.018 52.8411 113.219 52.7637C113.419 52.6908 113.588 52.5654 113.725 52.3877C113.866 52.2145 113.987 51.9753 114.087 51.6699L114.613 50.2344ZM113.103 43.6035L115.023 49.3457L115.352 50.6787L114.442 51.1436L111.722 43.6035H113.103ZM122.181 43.6035V51H120.909V43.6035H122.181ZM124.662 43.6035V44.6289H118.476V43.6035H124.662ZM127.273 48.9971L130.685 43.6035H131.956V51H130.685V45.6064L127.273 51H126.016V43.6035H127.273V48.9971ZM141.479 40.9922V51H140.214V42.5713L137.664 43.501V42.3594L141.28 40.9922H141.479ZM154.385 43.6035V51H153.12V43.6035H154.385ZM153.954 47.001V48.04C153.699 48.1357 153.439 48.2223 153.175 48.2998C152.915 48.3727 152.639 48.432 152.348 48.4775C152.061 48.5186 151.748 48.5391 151.411 48.5391C150.828 48.5391 150.322 48.4388 149.894 48.2383C149.465 48.0332 149.135 47.7256 148.902 47.3154C148.67 46.9007 148.554 46.3789 148.554 45.75V43.5898H149.818V45.75C149.818 46.1602 149.88 46.4928 150.003 46.748C150.126 47.0033 150.306 47.1924 150.543 47.3154C150.78 47.4339 151.069 47.4932 151.411 47.4932C151.739 47.4932 152.047 47.4727 152.334 47.4316C152.626 47.3861 152.904 47.3268 153.168 47.2539C153.437 47.181 153.699 47.0967 153.954 47.001ZM161.357 46.2627L160.346 46.0029L160.845 41.0469H165.951V42.2158H161.918L161.617 44.9229C161.799 44.818 162.03 44.7201 162.308 44.6289C162.59 44.5378 162.914 44.4922 163.278 44.4922C163.739 44.4922 164.151 44.5719 164.516 44.7314C164.88 44.8864 165.19 45.1097 165.445 45.4014C165.705 45.693 165.903 46.0439 166.04 46.4541C166.177 46.8643 166.245 47.3223 166.245 47.8281C166.245 48.3066 166.179 48.7464 166.047 49.1475C165.919 49.5485 165.726 49.8994 165.466 50.2002C165.206 50.4964 164.878 50.7266 164.481 50.8906C164.09 51.0547 163.627 51.1367 163.094 51.1367C162.693 51.1367 162.312 51.082 161.952 50.9727C161.597 50.8587 161.278 50.6878 160.995 50.46C160.717 50.2275 160.489 49.9404 160.312 49.5986C160.138 49.2523 160.029 48.8467 159.983 48.3818H161.187C161.241 48.7555 161.351 49.07 161.515 49.3252C161.679 49.5804 161.893 49.7741 162.157 49.9062C162.426 50.0339 162.738 50.0977 163.094 50.0977C163.395 50.0977 163.661 50.0452 163.894 49.9404C164.126 49.8356 164.322 49.6852 164.481 49.4893C164.641 49.2933 164.762 49.0563 164.844 48.7783C164.93 48.5003 164.974 48.1882 164.974 47.8418C164.974 47.5273 164.93 47.2357 164.844 46.9668C164.757 46.6979 164.627 46.4632 164.454 46.2627C164.285 46.0622 164.078 45.9072 163.832 45.7979C163.586 45.6839 163.303 45.627 162.984 45.627C162.561 45.627 162.239 45.6839 162.021 45.7979C161.806 45.9118 161.585 46.0667 161.357 46.2627ZM169.232 46.2627L168.221 46.0029L168.72 41.0469H173.826V42.2158H169.793L169.492 44.9229C169.674 44.818 169.905 44.7201 170.183 44.6289C170.465 44.5378 170.789 44.4922 171.153 44.4922C171.614 44.4922 172.026 44.5719 172.391 44.7314C172.755 44.8864 173.065 45.1097 173.32 45.4014C173.58 45.693 173.778 46.0439 173.915 46.4541C174.052 46.8643 174.12 47.3223 174.12 47.8281C174.12 48.3066 174.054 48.7464 173.922 49.1475C173.794 49.5485 173.601 49.8994 173.341 50.2002C173.081 50.4964 172.753 50.7266 172.356 50.8906C171.965 51.0547 171.502 51.1367 170.969 51.1367C170.568 51.1367 170.187 51.082 169.827 50.9727C169.472 50.8587 169.153 50.6878 168.87 50.46C168.592 50.2275 168.364 49.9404 168.187 49.5986C168.013 49.2523 167.904 48.8467 167.858 48.3818H169.062C169.116 48.7555 169.226 49.07 169.39 49.3252C169.554 49.5804 169.768 49.7741 170.032 49.9062C170.301 50.0339 170.613 50.0977 170.969 50.0977C171.27 50.0977 171.536 50.0452 171.769 49.9404C172.001 49.8356 172.197 49.6852 172.356 49.4893C172.516 49.2933 172.637 49.0563 172.719 48.7783C172.805 48.5003 172.849 48.1882 172.849 47.8418C172.849 47.5273 172.805 47.2357 172.719 46.9668C172.632 46.6979 172.502 46.4632 172.329 46.2627C172.16 46.0622 171.953 45.9072 171.707 45.7979C171.461 45.6839 171.178 45.627 170.859 45.627C170.436 45.627 170.114 45.6839 169.896 45.7979C169.681 45.9118 169.46 46.0667 169.232 46.2627ZM183.369 49.3184L185.885 43.6035H187.102L183.807 51H182.932L179.65 43.6035H180.867L183.369 49.3184ZM180.498 43.6035V51H179.233V43.6035H180.498ZM186.199 51V43.6035H187.471V51H186.199ZM190.875 48.9971L194.286 43.6035H195.558V51H194.286V45.6064L190.875 51H189.617V43.6035H190.875V48.9971ZM202.605 46.8096V47.835H198.695V46.8096H202.605ZM198.962 43.6035V51H197.697V43.6035H198.962ZM203.631 43.6035V51H202.359V43.6035H203.631Z" fill="#B7BAC1"/>
<path d="M14 27.5C13.7239 27.5 13.5 27.7239 13.5 28C13.5 28.2761 13.7239 28.5 14 28.5L14 27.5ZM14 28.5L283 28.5L283 27.5L14 27.5L14 28.5Z" fill="#B7BAC1"/>
<path d="M6.5752 12.4844C6.5752 12.252 6.53874 12.0469 6.46582 11.8691C6.39746 11.6868 6.27441 11.5228 6.09668 11.377C5.9235 11.2311 5.68197 11.0921 5.37207 10.96C5.06673 10.8278 4.67936 10.6934 4.20996 10.5566C3.71777 10.4108 3.27344 10.249 2.87695 10.0713C2.48047 9.889 2.14095 9.68164 1.8584 9.44922C1.57585 9.2168 1.35938 8.9502 1.20898 8.64941C1.05859 8.34863 0.983398 8.00456 0.983398 7.61719C0.983398 7.22982 1.06315 6.87207 1.22266 6.54395C1.38216 6.21582 1.61003 5.93099 1.90625 5.68945C2.20703 5.44336 2.56478 5.25195 2.97949 5.11523C3.39421 4.97852 3.85677 4.91016 4.36719 4.91016C5.11458 4.91016 5.74805 5.05371 6.26758 5.34082C6.79167 5.62337 7.19043 5.99479 7.46387 6.45508C7.7373 6.91081 7.87402 7.39844 7.87402 7.91797H6.56152C6.56152 7.54427 6.48177 7.21387 6.32227 6.92676C6.16276 6.63509 5.92122 6.40723 5.59766 6.24316C5.27409 6.07454 4.86393 5.99023 4.36719 5.99023C3.89779 5.99023 3.51042 6.06087 3.20508 6.20215C2.89974 6.34342 2.67188 6.53483 2.52148 6.77637C2.37565 7.0179 2.30273 7.29362 2.30273 7.60352C2.30273 7.81315 2.34603 8.00456 2.43262 8.17773C2.52376 8.34635 2.66276 8.50358 2.84961 8.64941C3.04102 8.79525 3.28255 8.92969 3.57422 9.05273C3.87044 9.17578 4.22363 9.29427 4.63379 9.4082C5.19889 9.56771 5.68652 9.74544 6.09668 9.94141C6.50684 10.1374 6.84408 10.3584 7.1084 10.6045C7.37728 10.846 7.57552 11.1217 7.70312 11.4316C7.83529 11.737 7.90137 12.0833 7.90137 12.4707C7.90137 12.8763 7.81934 13.2432 7.65527 13.5713C7.49121 13.8994 7.25651 14.1797 6.95117 14.4121C6.64583 14.6445 6.27897 14.8245 5.85059 14.9521C5.42676 15.0752 4.9528 15.1367 4.42871 15.1367C3.96842 15.1367 3.51497 15.0729 3.06836 14.9453C2.6263 14.8177 2.22298 14.6263 1.8584 14.3711C1.49837 14.1159 1.20898 13.8014 0.990234 13.4277C0.776042 13.0495 0.668945 12.612 0.668945 12.1152H1.98145C1.98145 12.457 2.04753 12.751 2.17969 12.9971C2.31185 13.2386 2.49186 13.4391 2.71973 13.5986C2.95215 13.7581 3.21419 13.8766 3.50586 13.9541C3.80208 14.027 4.1097 14.0635 4.42871 14.0635C4.889 14.0635 5.27865 13.9997 5.59766 13.8721C5.91667 13.7445 6.1582 13.5622 6.32227 13.3252C6.49089 13.0882 6.5752 12.8079 6.5752 12.4844ZM12.7959 13.4893L15.7285 5.04688H17.1572L13.4727 15H12.4541L12.7959 13.4893ZM10.0547 5.04688L12.96 13.4893L13.3223 15H12.3037L8.62598 5.04688H10.0547ZM26.0645 9.70898V10.3379C26.0645 11.0853 25.971 11.7552 25.7842 12.3477C25.5973 12.9401 25.3285 13.4437 24.9775 13.8584C24.6266 14.2731 24.2051 14.5898 23.7129 14.8086C23.2253 15.0273 22.6784 15.1367 22.0723 15.1367C21.4844 15.1367 20.9443 15.0273 20.4521 14.8086C19.9645 14.5898 19.5407 14.2731 19.1807 13.8584C18.8252 13.4437 18.5495 12.9401 18.3535 12.3477C18.1576 11.7552 18.0596 11.0853 18.0596 10.3379V9.70898C18.0596 8.96159 18.1553 8.29395 18.3467 7.70605C18.5426 7.11361 18.8184 6.61003 19.1738 6.19531C19.5293 5.77604 19.9508 5.45703 20.4385 5.23828C20.9307 5.01953 21.4707 4.91016 22.0586 4.91016C22.6647 4.91016 23.2116 5.01953 23.6992 5.23828C24.1914 5.45703 24.613 5.77604 24.9639 6.19531C25.3193 6.61003 25.5905 7.11361 25.7773 7.70605C25.9688 8.29395 26.0645 8.96159 26.0645 9.70898ZM24.7588 10.3379V9.69531C24.7588 9.10286 24.6973 8.57878 24.5742 8.12305C24.4557 7.66732 24.2803 7.28451 24.0479 6.97461C23.8154 6.66471 23.5306 6.43001 23.1934 6.27051C22.8607 6.111 22.4824 6.03125 22.0586 6.03125C21.6484 6.03125 21.277 6.111 20.9443 6.27051C20.6162 6.43001 20.3337 6.66471 20.0967 6.97461C19.8643 7.28451 19.6842 7.66732 19.5566 8.12305C19.429 8.57878 19.3652 9.10286 19.3652 9.69531V10.3379C19.3652 10.9349 19.429 11.4635 19.5566 11.9238C19.6842 12.3796 19.8665 12.7646 20.1035 13.0791C20.3451 13.389 20.6299 13.6237 20.958 13.7832C21.2907 13.9427 21.6621 14.0225 22.0723 14.0225C22.5007 14.0225 22.8812 13.9427 23.2139 13.7832C23.5465 13.6237 23.8268 13.389 24.0547 13.0791C24.2871 12.7646 24.4626 12.3796 24.5811 11.9238C24.6995 11.4635 24.7588 10.9349 24.7588 10.3379Z" fill="#B7BAC1"/>
<circle cx="13.5" cy="28" r="4" fill="#C4C4C4"/>
<path d="M270.155 5.04688H273.45C274.198 5.04688 274.829 5.16081 275.344 5.38867C275.863 5.61654 276.257 5.95378 276.526 6.40039C276.8 6.84245 276.937 7.38704 276.937 8.03418C276.937 8.48991 276.843 8.9069 276.656 9.28516C276.474 9.65885 276.21 9.97786 275.863 10.2422C275.521 10.502 275.111 10.6956 274.633 10.8232L274.264 10.9668H271.167L271.153 9.89355H273.491C273.965 9.89355 274.359 9.81152 274.674 9.64746C274.988 9.47884 275.225 9.25326 275.385 8.9707C275.544 8.68815 275.624 8.37598 275.624 8.03418C275.624 7.65137 275.549 7.31641 275.398 7.0293C275.248 6.74219 275.011 6.52116 274.688 6.36621C274.368 6.20671 273.956 6.12695 273.45 6.12695H271.475V15H270.155V5.04688ZM275.973 15L273.553 10.4883L274.927 10.4814L277.381 14.918V15H275.973ZM286.445 9.70898V10.3379C286.445 11.0853 286.352 11.7552 286.165 12.3477C285.978 12.9401 285.709 13.4437 285.358 13.8584C285.007 14.2731 284.586 14.5898 284.094 14.8086C283.606 15.0273 283.059 15.1367 282.453 15.1367C281.865 15.1367 281.325 15.0273 280.833 14.8086C280.345 14.5898 279.922 14.2731 279.562 13.8584C279.206 13.4437 278.93 12.9401 278.734 12.3477C278.538 11.7552 278.44 11.0853 278.44 10.3379V9.70898C278.44 8.96159 278.536 8.29395 278.728 7.70605C278.924 7.11361 279.199 6.61003 279.555 6.19531C279.91 5.77604 280.332 5.45703 280.819 5.23828C281.312 5.01953 281.852 4.91016 282.439 4.91016C283.046 4.91016 283.592 5.01953 284.08 5.23828C284.572 5.45703 284.994 5.77604 285.345 6.19531C285.7 6.61003 285.971 7.11361 286.158 7.70605C286.35 8.29395 286.445 8.96159 286.445 9.70898ZM285.14 10.3379V9.69531C285.14 9.10286 285.078 8.57878 284.955 8.12305C284.837 7.66732 284.661 7.28451 284.429 6.97461C284.196 6.66471 283.911 6.43001 283.574 6.27051C283.242 6.111 282.863 6.03125 282.439 6.03125C282.029 6.03125 281.658 6.111 281.325 6.27051C280.997 6.43001 280.715 6.66471 280.478 6.97461C280.245 7.28451 280.065 7.66732 279.938 8.12305C279.81 8.57878 279.746 9.10286 279.746 9.69531V10.3379C279.746 10.9349 279.81 11.4635 279.938 11.9238C280.065 12.3796 280.247 12.7646 280.484 13.0791C280.726 13.389 281.011 13.6237 281.339 13.7832C281.672 13.9427 282.043 14.0225 282.453 14.0225C282.882 14.0225 283.262 13.9427 283.595 13.7832C283.927 13.6237 284.208 13.389 284.436 13.0791C284.668 12.7646 284.843 12.3796 284.962 11.9238C285.08 11.4635 285.14 10.9349 285.14 10.3379ZM291.483 13.4893L294.416 5.04688H295.845L292.16 15H291.142L291.483 13.4893ZM288.742 5.04688L291.647 13.4893L292.01 15H290.991L287.313 5.04688H288.742Z" fill="#B7BAC1"/>
<circle cx="283" cy="28" r="4" fill="#C4C4C4"/>
</svg>
